<?xml version="1.0" encoding="UTF-8" standalone="no"?>
<svg width="175px" height="36px" viewBox="0 0 175 36" version="1.1" xmlns="http://www.w3.org/2000/svg" xmlns:xlink="http://www.w3.org/1999/xlink" xmlns:sketch="http://www.bohemiancoding.com/sketch/ns">
    <!-- Generator: Sketch 3.5.1 (25234) - http://www.bohemiancoding.com/sketch -->
    <title>Slice 1</title>
    <desc>Created with Sketch.</desc>
    <defs></defs>
    <g id="Page-1" stroke="none" stroke-width="1" fill="none" fill-rule="evenodd" sketch:type="MSPage">
        <g id="logo_moi" sketch:type="MSLayerGroup">
            <g id="Group" sketch:type="MSShapeGroup">
                <g id="Shape" fill="#EC1E2E">
                    <path d="M17.9,10.6 L33.3,10.6 C30.6,4.8 24.7,0.9 17.9,0.9 C8.5,0.9 0.9,8.5 0.9,17.9 C0.9,27.3 8.5,34.9 17.9,34.9 L17.9,10.6 L17.9,10.6 Z"></path>
                    <path d="M33.3,25.4 L17.9,25.4 C20.6,31.2 26.5,35.1 33.3,35.1 C42.7,35.1 50.3,27.5 50.3,18.1 C50.3,8.7 42.7,1.1 33.3,1.1 L33.3,25.4 L33.3,25.4 Z"></path>
                </g>
                <path d="M52.8,1.6 L69.6,1.6 L69.6,4.4 L66.9,4.6 C66.6,4.6 66.4,4.7 66.3,4.9 L66.3,4.9 C66.1,5.2 66,5.5 66.2,5.8 L73.9,25.5 L81.5,5.9 C81.6,5.6 81.6,5.2 81.3,5 L81.3,5 C81.1,4.8 80.9,4.7 80.7,4.7 L77.8,4.5 L77.8,1.6 L90.5,1.6 L90.5,4.4 L86.9,5.1 L75.2,34.4 L68.3,34.4 L57,6.5 C56.6,5.6 55.8,4.9 54.8,4.8 L52.7,4.5 L52.7,1.6 L52.8,1.6 Z" id="Shape" fill="#000000"></path>
                <path d="M94.8,34.3 L94.8,31.5 L97.5,31.3 C97.9,31.3 98.3,31.1 98.6,30.8 L98.6,30.8 C98.9,30.5 99,30.1 99,29.7 L99,6.1 C99,5.7 98.8,5.3 98.5,5 L98.5,5 C98.3,4.8 98,4.7 97.7,4.7 L94.8,4.5 L94.8,1.7 L123.7,1.7 L123.7,10.5 L119.1,10.5 L118.4,6.2 C118.3,5.9 118.2,5.6 117.9,5.4 L117.9,5.4 C117.7,5.2 117.4,5.1 117.1,5.1 L108.5,5.1 L108.5,16.6 L114,16.6 C114.3,16.6 114.6,16.5 114.8,16.3 L114.8,16.3 C115,16.1 115.2,15.8 115.3,15.5 L115.7,12.5 L118.9,12.5 L118.9,24.4 L115.7,24.4 L115.3,21.4 C115.3,21.1 115.1,20.8 114.9,20.6 L114.9,20.6 C114.6,20.4 114.3,20.2 114,20.2 L108.5,20.2 L108.5,29.7 C108.5,30.2 108.7,30.6 109.1,31 L109.1,31 C109.4,31.3 109.8,31.4 110.2,31.4 L113.4,31.6 L113.4,34.4 L94.8,34.4 L94.8,34.3 Z" id="Shape" fill="#000000"></path>
                <path d="M127.9,34.3 L127.9,31.5 L130.8,31.3 C131.2,31.3 131.6,31 131.9,30.7 L131.9,30.7 C132.1,30.5 132.1,30.2 132.1,29.9 L132.1,5.7 C132.1,5.4 132,5.1 131.7,4.9 L131.7,4.9 C131.5,4.7 131.3,4.6 131.1,4.6 L127.9,4.3 L127.9,1.7 L144.4,1.7 L144.4,3.1 L151.5,23.5 L158.5,3.1 L158.5,1.7 L175,1.7 L175,4.4 L171.6,4.7 C171.3,4.7 171,4.9 170.8,5.1 L170.8,5.1 C170.6,5.3 170.5,5.6 170.5,5.9 L170.5,30 C170.5,30.3 170.6,30.5 170.7,30.8 L170.7,30.8 C170.9,31.2 171.3,31.4 171.8,31.4 L174.9,31.6 L174.9,34.4 L158.4,34.4 L158.4,31.6 L160.8,31.5 C161.3,31.5 161.7,31.2 161.9,30.8 L161.9,30.8 C162,30.6 162,30.4 162,30.3 L162,5.3 L161.9,5.3 L151.9,34.4 L146.7,34.4 L136.7,5.3 L136.6,5.3 L136.6,30 C136.6,30.3 136.7,30.5 136.8,30.8 L136.8,30.8 C137,31.2 137.4,31.4 137.9,31.4 L140.6,31.6 L140.6,34.4 L127.9,34.4 L127.9,34.3 Z" id="Shape" fill="#000000"></path>
            </g>
        </g>
    </g>
</svg>