<svg id="Layer_1" data-name="Layer 1" xmlns="http://www.w3.org/2000/svg" width="400" height="186" viewBox="0 0 400 186"><defs><style>.cls-1{fill:#bdbec0;}.cls-2{fill:#dc2e28;}.cls-3{fill:#010101;}</style></defs><title>00Frostrow_ClientLogos</title><polygon class="cls-1" points="61.13 71.72 40.8 112.38 20.46 71.72 61.13 71.72"/><path class="cls-2" d="M40.8,112.38H61.13V71.72Zm-20.34,0H40.8L20.46,71.72Z"/><path class="cls-3" d="M112.6,74a8,8,0,0,0-1.81.33,6.75,6.75,0,0,0-1.74.73,4.69,4.69,0,0,0-1.56,1.54,18.27,18.27,0,0,0-1.16,2.23q-1.92,4.54-5.75,14.17T92.69,113H90.32q-4.12-11.07-8-21.34t-5.2-13.87a5.27,5.27,0,0,0-.92-1.56A6.75,6.75,0,0,0,74.73,75,5.87,5.87,0,0,0,73,74.26a10.19,10.19,0,0,0-1.75-.3v-2h16.8v2a24.33,24.33,0,0,0-3.62.43Q83,74.7,83,75.5a3.31,3.31,0,0,0,.11.75l.2.69q1.06,2.79,3.43,9.14t6.75,18c1.45-3.53,3.13-7.69,5-12.5s3.15-8.12,3.8-9.91a23,23,0,0,0,1.1-3.6,10.38,10.38,0,0,0,.16-1.63,1.32,1.32,0,0,0-.58-1.1,5.27,5.27,0,0,0-1.56-.76,14,14,0,0,0-1.92-.43c-.65-.1-1.3-.18-2-.23v-2h15.1Z"/><path class="cls-3" d="M124,75.7a4.17,4.17,0,0,1-1.07,2.84,3.41,3.41,0,0,1-2.65,1.22,3.36,3.36,0,0,1-2.53-1.16A3.8,3.8,0,0,1,116.68,76a4,4,0,0,1,1.07-2.74A3.34,3.34,0,0,1,120.28,72a3.51,3.51,0,0,1,2.68,1.1,3.61,3.61,0,0,1,1,2.56m3.53,36.81H113.92v-1.88l1.36-.12a5.09,5.09,0,0,0,1.22-.23,2,2,0,0,0,1.18-.9,3.15,3.15,0,0,0,.38-1.67V90.32a3.43,3.43,0,0,0-.41-1.68,3.77,3.77,0,0,0-1.15-1.27,5.43,5.43,0,0,0-1.58-.58,12,12,0,0,0-1.89-.3V84.6L123,84l.4.4v23a3.35,3.35,0,0,0,.38,1.67,2.29,2.29,0,0,0,1.21,1,9.21,9.21,0,0,0,1.22.41,7.24,7.24,0,0,0,1.33.22Z"/><path class="cls-3" d="M308.25,75.7a4.15,4.15,0,0,1-1.08,2.84,3.38,3.38,0,0,1-2.64,1.22A3.33,3.33,0,0,1,302,78.6,3.76,3.76,0,0,1,300.92,76,3.92,3.92,0,0,1,302,73.21,3.31,3.31,0,0,1,304.53,72a3.49,3.49,0,0,1,2.67,1.1,3.58,3.58,0,0,1,1.05,2.56"/><path class="cls-3" d="M162.58,112.51H148.79v-1.88l1.45-.12a5.25,5.25,0,0,0,1.3-.23,2.07,2.07,0,0,0,1.19-.9,3.3,3.3,0,0,0,.38-1.67V93.21a6.85,6.85,0,0,0-1.42-4.64,4.41,4.41,0,0,0-3.45-1.63,7.76,7.76,0,0,0-2.78.48,9.63,9.63,0,0,0-2.24,1.15,6.63,6.63,0,0,0-1.5,1.42,13,13,0,0,0-.82,1.22v16.21a3,3,0,0,0,.4,1.61,2.67,2.67,0,0,0,1.2,1,6.61,6.61,0,0,0,1.3.43,13.32,13.32,0,0,0,1.45.2v1.88H131.43v-1.88l1.36-.12a5.09,5.09,0,0,0,1.22-.23,2,2,0,0,0,1.18-.9,3.15,3.15,0,0,0,.39-1.67V90.32a3.84,3.84,0,0,0-.42-1.79A3.52,3.52,0,0,0,134,87.2a4,4,0,0,0-1.29-.5,12.66,12.66,0,0,0-1.6-.21V84.6L140.5,84l.4.4v4H141c.46-.45,1-1,1.72-1.64a15.05,15.05,0,0,1,1.94-1.56A10.48,10.48,0,0,1,147.22,84a11.18,11.18,0,0,1,3.29-.46c2.71,0,4.71.85,6,2.53a10.76,10.76,0,0,1,2,6.74v14.67a3.42,3.42,0,0,0,.34,1.62,2.21,2.21,0,0,0,1.18,1,8,8,0,0,0,1.18.41,10.7,10.7,0,0,0,1.39.17Z"/><path class="cls-3" d="M183.18,96.9c-1.62.47-3,.94-4.26,1.4a17.21,17.21,0,0,0-3.4,1.72,7.63,7.63,0,0,0-2.26,2.31,5.88,5.88,0,0,0-.83,3.16,4.47,4.47,0,0,0,1.24,3.5,4.55,4.55,0,0,0,3.17,1.12,6.5,6.5,0,0,0,3.57-1,10.45,10.45,0,0,0,2.6-2.33Zm10,15.1c-.89.32-1.68.59-2.35.79a8.19,8.19,0,0,1-2.31.3,5.59,5.59,0,0,1-3.56-1,4.84,4.84,0,0,1-1.7-3.05h-.17a14,14,0,0,1-4,3.15,11.1,11.1,0,0,1-5.13,1.09,7.29,7.29,0,0,1-5.23-2,6.71,6.71,0,0,1-2-5.09,8.54,8.54,0,0,1,.46-2.91,6.91,6.91,0,0,1,1.37-2.32,7,7,0,0,1,1.89-1.53,15.16,15.16,0,0,1,2.2-1.07q1.29-.49,5.22-1.8a39,39,0,0,0,5.31-2.07V91.66a13.75,13.75,0,0,0-.16-1.43,6.22,6.22,0,0,0-.67-2,5.64,5.64,0,0,0-1.62-1.84,4.8,4.8,0,0,0-3-.79,6.7,6.7,0,0,0-2.44.44,4.47,4.47,0,0,0-1.59.93,7.87,7.87,0,0,0,.27,1.69,8.77,8.77,0,0,1,.27,2.06,2.46,2.46,0,0,1-.9,1.83,3.59,3.59,0,0,1-2.5.83,2.36,2.36,0,0,1-2.11-1,4,4,0,0,1,.26-4.79,9.4,9.4,0,0,1,2.42-2.14,13.3,13.3,0,0,1,3.12-1.36,12.28,12.28,0,0,1,3.57-.56,23.35,23.35,0,0,1,4.19.33,7.71,7.71,0,0,1,3.25,1.42,6.52,6.52,0,0,1,2.21,2.87,12.18,12.18,0,0,1,.76,4.68c0,2.73,0,5.14-.08,7.25s-.09,4.41-.09,6.91a3.47,3.47,0,0,0,.39,1.77,3,3,0,0,0,1.18,1.11,2.84,2.84,0,0,0,1.36.29c.62,0,1.25,0,1.9,0Z"/><path class="cls-3" d="M215,113.49a17.52,17.52,0,0,1-7-1.43,17.92,17.92,0,0,1-5.9-4.13,20.13,20.13,0,0,1-4.06-6.56,23.9,23.9,0,0,1-1.51-8.75A24.83,24.83,0,0,1,198,83.79,20.58,20.58,0,0,1,202.15,77a18,18,0,0,1,6.14-4.38,19.67,19.67,0,0,1,13-.81,20.5,20.5,0,0,1,4.63,2.09l1.18-1.94h2.28l.26,14.48h-2.35a33.14,33.14,0,0,0-1.37-4.6,17.63,17.63,0,0,0-2.14-4.19,10.22,10.22,0,0,0-3.26-3,8.31,8.31,0,0,0-4.31-1.11,11.12,11.12,0,0,0-5.16,1.23,11.85,11.85,0,0,0-4.12,3.64,17.71,17.71,0,0,0-2.6,5.89,31.32,31.32,0,0,0-1,8,24.35,24.35,0,0,0,1,7.14,18.46,18.46,0,0,0,2.81,5.71,13.51,13.51,0,0,0,4.33,3.81,11.48,11.48,0,0,0,5.59,1.37,12.11,12.11,0,0,0,4.25-.72,11.63,11.63,0,0,0,3.38-1.94,15,15,0,0,0,2.51-2.86,15.61,15.61,0,0,0,1.77-3.48l2.14,1c-1.63,4-3.81,6.89-6.51,8.62a17.63,17.63,0,0,1-9.66,2.59"/><path class="cls-3" d="M251.13,96.9c-1.62.47-3,.94-4.26,1.4a16.94,16.94,0,0,0-3.4,1.72,7.79,7.79,0,0,0-2.27,2.31,5.88,5.88,0,0,0-.83,3.16,4.47,4.47,0,0,0,1.25,3.5,4.53,4.53,0,0,0,3.16,1.12,6.51,6.51,0,0,0,3.58-1,10.81,10.81,0,0,0,2.6-2.33Zm10,15.1c-.9.32-1.68.59-2.36.79a8.11,8.11,0,0,1-2.3.3,5.57,5.57,0,0,1-3.56-1,4.85,4.85,0,0,1-1.71-3.05H251a14.09,14.09,0,0,1-4,3.15,11.15,11.15,0,0,1-5.14,1.09,7.28,7.28,0,0,1-5.22-2,6.71,6.71,0,0,1-2-5.09,8.54,8.54,0,0,1,.46-2.91,6.91,6.91,0,0,1,1.37-2.32,6.73,6.73,0,0,1,1.89-1.53,15.16,15.16,0,0,1,2.2-1.07c.85-.33,2.6-.93,5.22-1.8a38.75,38.75,0,0,0,5.3-2.07V91.66a12.83,12.83,0,0,0-.15-1.43,6,6,0,0,0-.68-2,5.73,5.73,0,0,0-1.61-1.84,4.82,4.82,0,0,0-3-.79,6.75,6.75,0,0,0-2.45.44,4.66,4.66,0,0,0-1.59.93,7.87,7.87,0,0,0,.27,1.69,8.82,8.82,0,0,1,.28,2.06,2.46,2.46,0,0,1-.9,1.83,3.58,3.58,0,0,1-2.51.83,2.34,2.34,0,0,1-2.1-1,4,4,0,0,1-.67-2.27,4.06,4.06,0,0,1,.93-2.52,9.23,9.23,0,0,1,2.42-2.14,13,13,0,0,1,3.11-1.36,12.29,12.29,0,0,1,3.58-.56,23.35,23.35,0,0,1,4.19.33,7.61,7.61,0,0,1,3.24,1.42,6.54,6.54,0,0,1,2.22,2.87,12.18,12.18,0,0,1,.76,4.68c0,2.73,0,5.14-.09,7.25s-.08,4.41-.08,6.91a3.58,3.58,0,0,0,.38,1.77,3.13,3.13,0,0,0,1.19,1.11,2.84,2.84,0,0,0,1.36.29c.62,0,1.25,0,1.9,0Z"/><path class="cls-3" d="M285.43,107.94a12.94,12.94,0,0,0,1.69-4.12,23.35,23.35,0,0,0,.54-5.23,20.82,20.82,0,0,0-.46-4.32,12.3,12.3,0,0,0-1.42-3.83,7.92,7.92,0,0,0-2.55-2.69,7.44,7.44,0,0,0-7.38-.1,10.54,10.54,0,0,0-2.57,2.21v16.67a6.24,6.24,0,0,0,.84,1.61,7.8,7.8,0,0,0,1.3,1.43,8.15,8.15,0,0,0,1.92,1.15,6.24,6.24,0,0,0,2.52.45,6.16,6.16,0,0,0,3.08-.84,7.18,7.18,0,0,0,2.49-2.39m4.67-20.28a14.89,14.89,0,0,1,2.61,4.65,18.18,18.18,0,0,1,.93,6,16.2,16.2,0,0,1-1.11,6.1,15.15,15.15,0,0,1-2.95,4.71,14.11,14.11,0,0,1-4.26,3,11.94,11.94,0,0,1-5,1.06,12.89,12.89,0,0,1-4.18-.57,9.85,9.85,0,0,1-2.66-1.35h-.22v8.49a3.47,3.47,0,0,0,.39,1.72,2.35,2.35,0,0,0,1.24,1,12.63,12.63,0,0,0,2,.5,14.74,14.74,0,0,0,2.1.28v1.88H263.21v-1.88q.89-.06,1.71-.15a8.42,8.42,0,0,0,1.49-.28,2,2,0,0,0,1.2-1,3.79,3.79,0,0,0,.35-1.68v-30a3.58,3.58,0,0,0-.43-1.67,3.67,3.67,0,0,0-1.12-1.28,3.93,3.93,0,0,0-1.43-.53,14.4,14.4,0,0,0-1.77-.24V84.6l9.61-.63.4.34v3.18l.23.06a12.35,12.35,0,0,1,3.69-2.87,9.43,9.43,0,0,1,4.37-1.14,10.49,10.49,0,0,1,4.82,1.11,12.09,12.09,0,0,1,3.77,3"/><path class="cls-3" d="M311.87,112.51H298.25v-1.88l1.36-.12a5,5,0,0,0,1.22-.23,2,2,0,0,0,1.18-.9,3.15,3.15,0,0,0,.39-1.67V90.32a3.33,3.33,0,0,0-.42-1.68,3.67,3.67,0,0,0-1.15-1.27,5.21,5.21,0,0,0-1.58-.58,11.93,11.93,0,0,0-1.88-.3V84.6l9.95-.63.4.4v23a3.25,3.25,0,0,0,.39,1.67,2.22,2.22,0,0,0,1.2,1,9.72,9.72,0,0,0,1.22.41,7.35,7.35,0,0,0,1.34.22Z"/><path class="cls-3" d="M333.19,111.28c-1.24.52-2.42,1-3.52,1.3a13.29,13.29,0,0,1-4.06.53q-3.56,0-5-1.78a7.81,7.81,0,0,1-1.45-5V87.17h-5.09V84.43h5.2V75.65h5.21v8.78h8.1v2.74h-8v15.76a27.1,27.1,0,0,0,.13,3,5.64,5.64,0,0,0,.61,2.08,3,3,0,0,0,1.38,1.26,5.9,5.9,0,0,0,2.45.42c.48,0,1.18,0,2.11-.12a9.11,9.11,0,0,0,2-.34Z"/><path class="cls-3" d="M353.13,96.9c-1.62.47-3,.94-4.26,1.4a16.94,16.94,0,0,0-3.4,1.72,7.63,7.63,0,0,0-2.26,2.31,5.8,5.8,0,0,0-.84,3.16,4.47,4.47,0,0,0,1.25,3.5,4.53,4.53,0,0,0,3.16,1.12,6.48,6.48,0,0,0,3.58-1,10.81,10.81,0,0,0,2.6-2.33Zm10,15.1c-.89.32-1.68.59-2.36.79a8.07,8.07,0,0,1-2.3.3,5.57,5.57,0,0,1-3.56-1,4.79,4.79,0,0,1-1.7-3.05H353a13.78,13.78,0,0,1-4,3.15,11.15,11.15,0,0,1-5.14,1.09,7.28,7.28,0,0,1-5.22-2,6.71,6.71,0,0,1-2-5.09,8.54,8.54,0,0,1,.46-2.91,6.91,6.91,0,0,1,1.37-2.32,6.73,6.73,0,0,1,1.89-1.53,15.16,15.16,0,0,1,2.2-1.07q1.29-.49,5.22-1.8a38.21,38.21,0,0,0,5.3-2.07V91.66a12.83,12.83,0,0,0-.15-1.43,6,6,0,0,0-.68-2,5.73,5.73,0,0,0-1.61-1.84,4.82,4.82,0,0,0-3-.79,6.75,6.75,0,0,0-2.45.44,4.66,4.66,0,0,0-1.59.93,7.41,7.41,0,0,0,.28,1.69,9.34,9.34,0,0,1,.27,2.06,2.46,2.46,0,0,1-.9,1.83,3.6,3.6,0,0,1-2.51.83,2.34,2.34,0,0,1-2.1-1,4,4,0,0,1-.67-2.27,4.06,4.06,0,0,1,.93-2.52,9.4,9.4,0,0,1,2.42-2.14,13,13,0,0,1,3.11-1.36,12.34,12.34,0,0,1,3.58-.56,23.35,23.35,0,0,1,4.19.33,7.61,7.61,0,0,1,3.24,1.42,6.47,6.47,0,0,1,2.22,2.87,12.37,12.37,0,0,1,.76,4.68c0,2.73,0,5.14-.08,7.25s-.09,4.41-.09,6.91a3.47,3.47,0,0,0,.39,1.77,3,3,0,0,0,1.18,1.11,2.84,2.84,0,0,0,1.36.29c.62,0,1.25,0,1.9,0Z"/><path class="cls-3" d="M379.54,112.51H365.78v-1.88l1.4-.13a6.38,6.38,0,0,0,1.23-.22,2.06,2.06,0,0,0,1.2-.9,3.11,3.11,0,0,0,.4-1.67V75a4.24,4.24,0,0,0-.44-1.93,3.82,3.82,0,0,0-1.16-1.42,5.79,5.79,0,0,0-1.88-.63,17.55,17.55,0,0,0-2.21-.34V68.87l10.61-.63.41.43v38.69a3.25,3.25,0,0,0,.37,1.65,2.35,2.35,0,0,0,1.2,1,8,8,0,0,0,1.24.43,10.07,10.07,0,0,0,1.39.2Z"/></svg>